<svg width="26" height="26" viewBox="0 0 26 26" fill="none" xmlns="http://www.w3.org/2000/svg">
<path d="M12.5269 12.8956C16.4808 12.8956 19.6852 10.0092 19.6852 6.44782C19.6852 2.88641 16.4808 0 12.5269 0C8.57313 0 5.36869 2.88641 5.36869 6.44782C5.36869 10.0092 8.57313 12.8956 12.5269 12.8956ZM17.5377 14.5076H16.6038C15.3623 15.0214 13.981 15.3136 12.5269 15.3136C11.0729 15.3136 9.6972 15.0214 8.4501 14.5076H7.51617C3.36662 14.5076 0 17.5401 0 21.2778V23.3733C0 24.7082 1.20236 25.7913 2.68435 25.7913H22.3696C23.8515 25.7913 25.0539 24.7082 25.0539 23.3733V21.2778C25.0539 17.5401 21.6873 14.5076 17.5377 14.5076Z" fill="#D9D9D9" fill-opacity="0.74"/>
</svg>
