<svg width="26" height="19" viewBox="0 0 26 19" fill="none" xmlns="http://www.w3.org/2000/svg">
<path d="M24.5792 5.95567C24.7701 5.81007 25.0539 5.94628 25.0539 6.17642V15.7816C25.0539 17.0263 24.0018 18.0361 22.7051 18.0361H2.3488C1.05207 18.0361 0 17.0263 0 15.7816V6.18112C0 5.94628 0.27892 5.81476 0.474654 5.96037C1.57076 6.77763 3.02408 7.81564 8.01529 11.296C9.04778 12.0194 10.7898 13.5412 12.5269 13.5318C14.2739 13.5459 16.0502 11.9912 17.0435 11.296C22.0347 7.81564 23.4831 6.77293 24.5792 5.95567ZM12.5269 12.0241C13.6622 12.0429 15.2966 10.6526 16.1187 10.0795C22.6121 5.55643 23.1063 5.16189 24.6037 4.03464C24.8875 3.82328 25.0539 3.49449 25.0539 3.14692V2.25451C25.0539 1.00983 24.0018 0 22.7051 0H2.3488C1.05207 0 0 1.00983 0 2.25451V3.14692C0 3.49449 0.166374 3.81858 0.450187 4.03464C1.94755 5.1572 2.44178 5.55643 8.93524 10.0795C9.75732 10.6526 11.3917 12.0429 12.5269 12.0241Z" fill="#D9D9D9" fill-opacity="0.74"/>
</svg>
