<svg width="25" height="24" viewBox="0 0 25 24" fill="none" xmlns="http://www.w3.org/2000/svg">
<g clip-path="url(#clip0_4_182)">
<g clip-path="url(#clip1_4_182)">
<path d="M17.9943 8.14193L12.44 2.58759L6.88561 8.14193C3.82385 11.2037 3.82385 16.1791 6.88561 19.2408C8.41649 20.7717 10.4282 21.5371 12.44 21.5371C14.4517 21.5371 16.4634 20.7717 17.9943 19.2408C21.0561 16.1791 21.0561 11.2037 17.9943 8.14193V8.14193ZM12.44 19.5843C10.8698 19.5843 9.38801 18.9759 8.27911 17.8571C7.16039 16.7384 6.55196 15.2664 6.55196 13.6963C6.55196 12.1261 7.16039 10.6443 8.27911 9.53543L12.44 5.36476V19.5843Z" fill="#0A157A"/>
</g>
</g>
<defs>
<clipPath id="clip0_4_182">
<rect width="23.552" height="23.552" fill="white" transform="translate(0.664001 0.359985)"/>
</clipPath>
<clipPath id="clip1_4_182">
<rect width="23.552" height="23.552" fill="white" transform="translate(0.664001 0.359985)"/>
</clipPath>
</defs>
</svg>
