<svg width="21" height="20" viewBox="0 0 21 20" fill="none" xmlns="http://www.w3.org/2000/svg">
<path d="M10.041 1.32256C10.2148 0.92035 10.7852 0.920351 10.959 1.32256L13.0578 6.17935C13.275 6.6821 13.749 7.02648 14.2943 7.07774L19.562 7.57299C19.9982 7.61401 20.1744 8.15643 19.8456 8.44602L15.8751 11.9429C15.4641 12.3049 15.283 12.8621 15.4028 13.3966L16.5596 18.5594C16.6554 18.987 16.194 19.3222 15.8169 19.099L11.2642 16.4034C10.7929 16.1244 10.2071 16.1244 9.73578 16.4034L5.18307 19.099C4.80604 19.3222 4.34463 18.987 4.44042 18.5594L5.59721 13.3966C5.71695 12.8621 5.5359 12.3049 5.1249 11.9429L1.15438 8.44602C0.825561 8.15643 1.00181 7.61401 1.43804 7.57299L6.70569 7.07774C7.25097 7.02648 7.72496 6.6821 7.94222 6.17935L10.041 1.32256Z" stroke="#4C1A57" stroke-opacity="0.44"/>
</svg>
